<?xml version="1.0" encoding="utf-8"?>
<!-- Generator: Adobe Illustrator 16.0.0, SVG Export Plug-In . SVG Version: 6.00 Build 0)  -->
<!DOCTYPE svg PUBLIC "-//W3C//DTD SVG 1.1//EN" "http://www.w3.org/Graphics/SVG/1.1/DTD/svg11.dtd">
<svg version="1.1" xmlns="http://www.w3.org/2000/svg" xmlns:xlink="http://www.w3.org/1999/xlink" x="0px" y="0px" width="600px"
	 height="205.984px" viewBox="0 0 600 205.984" enable-background="new 0 0 600 205.984" xml:space="preserve">
<g id="Layer_1">
	<linearGradient id="SVGID_1_" gradientUnits="userSpaceOnUse" x1="300.0225" y1="0" x2="300.0225" y2="205.9844">
		<stop  offset="0" style="stop-color:#2F2F2F"/>
		<stop  offset="1" style="stop-color:#171717"/>
	</linearGradient>
	<path fill="url(#SVGID_1_)" d="M600,177.986c0,15.463-12.535,27.998-27.998,27.998H28.043c-15.463,0-27.998-12.535-27.998-27.998
		V27.998C0.045,12.535,12.581,0,28.043,0h543.958C587.465,0,600,12.535,600,27.998V177.986z"/>
</g>
<g id="SemiBold">
	<g>
		<g>
			<g>
				<path fill="#FFFFFF" d="M409.579,137.215l-3.904,3.683c-0.899,0.496-1.798,1.072-2.692,1.482
					c-2.712,1.229-5.468,1.539-7.92,1.539c-2.609,0-6.696-0.168-10.864-3.185c-5.796-4.081-8.326-11.095-8.326-17.208
					c0-12.658,10.302-18.863,18.703-18.863c2.939,0,5.954,0.734,8.407,2.287c4.076,2.695,5.133,6.201,5.718,8.079l-19.189,7.752
					l-6.282,0.49c2.033,10.374,9.053,16.409,16.811,16.409c3.874,0,6.75-1.264,9.39-2.567
					C409.429,137.115,409.958,136.838,409.579,137.215z M398.003,116.575c1.56-0.567,2.369-1.057,2.369-2.192
					c0-3.259-3.689-7.025-8.091-7.025c-3.262,0-9.382,2.539-9.382,11.357c0,1.377,0.163,2.842,0.245,4.309L398.003,116.575z"/>
				<path fill="#FFFFFF" d="M369.459,136.583c0,3.172,0.566,3.667,3.247,3.914c1.4,0.166,2.792,0.239,4.172,0.402l-3.019,1.798
					h-14.385c1.886-2.446,2.211-2.69,2.211-4.323v-1.822l-0.032-48.53h-6.352l6.114-2.945h11.673
					c-2.529,1.465-3.284,2.357-3.611,5.213L369.459,136.583z"/>
				<path fill="#FFFFFF" d="M347.151,108.67c1.872,1.541,5.783,4.81,5.783,11.013c0,6.045-3.408,8.894-6.845,11.591
					c-1.053,1.06-2.286,2.212-2.286,3.996c0,1.805,1.233,2.785,2.121,3.515l2.948,2.277c3.585,3.025,6.852,5.801,6.852,11.434
					c0,7.681-7.431,15.421-21.472,15.421c-11.826,0-17.547-5.632-17.547-11.672c0-2.941,1.463-7.104,6.292-9.953
					c5.06-3.095,11.916-3.509,15.587-3.749c-1.146-1.48-2.454-3.031-2.454-5.561c0-1.384,0.416-2.209,0.817-3.183
					c-0.892,0.086-1.792,0.174-2.61,0.174c-8.658,0-13.551-6.458-13.551-12.825c0-3.753,1.712-7.918,5.229-10.937
					c4.654-3.832,10.203-4.492,14.613-4.492h16.82l-5.23,2.951H347.151z M341.366,144.907c-0.669-0.088-1.071-0.088-1.879-0.088
					c-0.74,0-5.149,0.161-8.564,1.307c-1.808,0.661-7.03,2.612-7.03,8.412c0,5.785,5.638,9.956,14.362,9.956
					c7.835,0,11.996-3.755,11.996-8.813C350.251,151.519,347.559,149.321,341.366,144.907z M343.713,129.397
					c1.887-1.883,2.051-4.486,2.051-5.964c0-5.871-3.5-15.015-10.284-15.015c-2.116,0-4.411,1.062-5.714,2.705
					c-1.378,1.701-1.791,3.907-1.791,6.028c0,5.465,3.188,14.531,10.199,14.531C340.22,131.683,342.421,130.688,343.713,129.397z"/>
				<path fill="#FFFFFF" d="M296.543,143.752c-12.975,0-19.917-10.105-19.917-19.251c0-10.69,8.728-19.835,21.141-19.835
					c11.999,0,19.515,9.395,19.515,19.259C317.283,133.557,309.854,143.752,296.543,143.752z M306.75,137.147
					c1.976-2.611,2.454-5.873,2.454-9.051c0-7.189-3.427-20.898-13.548-20.898c-2.693,0-5.404,1.051-7.359,2.771
					c-3.188,2.855-3.755,6.443-3.755,9.965c0,8.065,3.985,21.366,13.878,21.366C301.613,141.3,304.869,139.755,306.75,137.147z"/>
				<path fill="#FFFFFF" d="M253.104,143.752c-12.978,0-19.908-10.105-19.908-19.251c0-10.69,8.73-19.835,21.139-19.835
					c11.992,0,19.5,9.395,19.5,19.259C273.834,133.557,266.417,143.752,253.104,143.752z M263.312,137.147
					c1.958-2.611,2.448-5.873,2.448-9.051c0-7.189-3.434-20.898-13.547-20.898c-2.702,0-5.382,1.051-7.344,2.771
					c-3.193,2.855-3.758,6.443-3.758,9.965c0,8.065,4.001,21.366,13.877,21.366C258.176,141.3,261.428,139.755,263.312,137.147z"/>
				<path fill="#FFFFFF" d="M228.008,140.92l-10.944,2.504c-4.434,0.699-8.414,1.316-12.631,1.316
					c-21.108,0-29.148-15.54-29.148-27.697c0-14.851,11.396-28.617,30.909-28.617c4.129,0,8.102,0.607,11.721,1.592
					c5.736,1.613,8.417,3.597,10.094,4.762l-6.357,6.038l-2.681,0.601l1.911-3.047c-2.589-2.528-7.347-7.193-16.375-7.193
					c-12.073,0-21.181,9.177-21.181,22.574c0,14.391,10.4,27.926,27.078,27.926c4.901,0,7.424-0.985,9.713-1.904v-12.335
					l-11.554,0.621l6.126-3.291h16.213l-1.981,1.909c-0.537,0.456-0.607,0.61-0.759,1.22c-0.08,0.695-0.153,2.912-0.153,3.691
					V140.92z"/>
			</g>
			<g>
				<path fill="#FFFFFF" d="M433.108,137.563v20.792h-4.129v-52.902h4.129v6.023c2.688-3.893,7.604-6.979,13.312-6.979
					c10.239,0,17.138,7.766,17.138,20.062c0,12.21-6.898,20.141-17.138,20.141C441.031,144.699,436.205,141.922,433.108,137.563z
					 M459.119,124.558c0-9.269-4.829-16.336-13.394-16.336c-5.319,0-10.406,4.182-12.617,7.827v16.934
					c2.211,3.652,7.298,7.984,12.617,7.984C454.29,140.967,459.119,133.837,459.119,124.558z"/>
				<path fill="#FFFFFF" d="M469.198,143.748V90.844h4.125v52.904H469.198z"/>
				<path fill="#FFFFFF" d="M519.653,154.935c0.883,0.392,2.39,0.635,3.345,0.635c2.528,0,4.284-1.031,5.863-4.683l3.013-6.82
					l-16.265-38.614h4.606l13.95,33.46l13.818-33.46h4.668l-19.838,46.715c-2.056,4.816-5.294,7.131-9.746,7.131
					c-1.332,0-3.094-0.239-4.124-0.556L519.653,154.935z"/>
				<path fill="#FFFFFF" d="M507.592,143.631c-0.273-1.327-0.481-2.496-0.634-3.475c-0.127-0.976-0.197-1.973-0.197-2.986
					c-1.419,2.079-3.426,3.808-5.984,5.171c-2.562,1.371-5,2.043-8.341,2.043c-4.024,0-7.143-0.99-9.372-2.997
					c-2.221-2.007-3.34-4.721-3.34-8.16c0-3.432,1.619-6.219,4.848-8.35c3.226-2.141,7.396-3.203,12.557-3.203h9.633v-4.76
					c0-2.74-0.937-4.893-2.802-6.458c-1.871-1.563-4.497-2.354-7.904-2.354c-3.113,0-5.64,0.723-7.562,2.131
					c-1.904,1.436-2.863,3.217-2.863,5.362h-4.228l-0.086-0.204c-0.156-2.893,1.172-5.431,3.983-7.623
					c2.802-2.189,6.473-3.291,10.987-3.291c4.498,0,8.141,1.086,10.889,3.247c2.741,2.14,4.122,5.235,4.122,9.279v18.892
					c0,1.355,0.061,2.666,0.23,3.945c0.175,1.281,0.452,2.557,0.822,3.791H507.592z M492.941,140.624
					c3.506,0,6.029-0.784,8.604-2.334c2.562-1.542,4.299-3.552,5.216-5.986v-7.354h-9.677c-3.698,0-6.754,0.818-9.164,2.468
					c-2.408,1.645-3.634,3.637-3.634,5.952c0,2.183,0.775,3.931,2.316,5.252C488.143,139.961,490.254,140.624,492.941,140.624z"/>
			</g>
		</g>
	</g>
	<g>
		<polygon fill="none" points="104.929,116.757 123.964,97.718 123.959,97.718 104.929,116.757 44.171,56.005 44.167,56.005 
			104.929,116.767 44.072,177.623 44.072,177.623 104.929,116.767 124.049,135.886 124.06,135.886 		"/>
		
			<linearGradient id="SVGID_2_" gradientUnits="userSpaceOnUse" x1="495.7754" y1="-233.3159" x2="415.5527" y2="-283.5226" gradientTransform="matrix(0.7071 0.7071 -0.7071 0.7071 -423.4185 -73.7158)">
			<stop  offset="0" style="stop-color:#D6FFA1"/>
			<stop  offset="0.3264" style="stop-color:#93E2A7"/>
			<stop  offset="1" style="stop-color:#00A3B5"/>
		</linearGradient>
		<path fill="url(#SVGID_2_)" d="M123.959,97.718L49.785,56.935c-2.102-1.15-4.043-1.419-5.614-0.93l60.758,60.751L123.959,97.718z"
			/>
		
			<linearGradient id="SVGID_3_" gradientUnits="userSpaceOnUse" x1="449.1289" y1="-276.2046" x2="553.1436" y2="-249.0138" gradientTransform="matrix(0.7071 0.7071 -0.7071 0.7071 -423.4185 -73.7158)">
			<stop  offset="0" style="stop-color:#FF177B"/>
			<stop  offset="0.6721" style="stop-color:#FFA976"/>
			<stop  offset="1" style="stop-color:#FFEC73"/>
		</linearGradient>
		<path fill="url(#SVGID_3_)" d="M124.06,135.886l25.319-13.922c5.135-2.834,5.135-7.446,0-10.27l-25.414-13.977l-19.035,19.039
			L124.06,135.886z"/>
		
			<linearGradient id="SVGID_4_" gradientUnits="userSpaceOnUse" x1="507.1963" y1="-195.2334" x2="394.4099" y2="-261.5901" gradientTransform="matrix(0.7071 0.7071 -0.7071 0.7071 -423.4185 -73.7158)">
			<stop  offset="0" style="stop-color:#63FFD4"/>
			<stop  offset="0.4854" style="stop-color:#32A0BA"/>
			<stop  offset="0.8349" style="stop-color:#1262A9"/>
			<stop  offset="1" style="stop-color:#064AA2"/>
		</linearGradient>
		<path fill="url(#SVGID_4_)" d="M44.167,56.005c-2.256,0.705-3.717,2.99-3.717,6.447l0.015,108.756
			c0,3.414,1.416,5.665,3.607,6.415l60.857-60.856L44.167,56.005z"/>
		
			<linearGradient id="SVGID_5_" gradientUnits="userSpaceOnUse" x1="548.1445" y1="-247.9194" x2="478.699" y2="-156.4284" gradientTransform="matrix(0.7071 0.7071 -0.7071 0.7071 -423.4185 -73.7158)">
			<stop  offset="0" style="stop-color:#FF4521"/>
			<stop  offset="0.3411" style="stop-color:#D43E65"/>
			<stop  offset="0.7935" style="stop-color:#9F36B9"/>
			<stop  offset="1" style="stop-color:#8A33DB"/>
		</linearGradient>
		<path fill="url(#SVGID_5_)" d="M44.072,177.623c1.579,0.537,3.56,0.285,5.712-0.896l74.265-40.84l-19.12-19.12L44.072,177.623z"/>
	</g>
	<g>
		<path fill="#FFFFFF" d="M195.257,37.363c-1.632-1.326-2.855-1.836-4.793-1.836c-3.774,0-6.494,2.788-6.494,7.717
			c0,4.726,2.482,7.683,6.868,7.683c1.972,0,4.08-0.408,6.017-1.292c0.442-0.204,0.442-0.374,0.442-0.816v-2.856h-4.012v-3.229
			h7.343c0.34,0,0.578,0,0.578,0.442v11.321h-3.025l-0.578-2.108l-1.802,0.986c-1.836,1.02-3.468,1.462-5.439,1.462
			c-6.323,0-10.641-4.861-10.641-11.627c0-7.173,5.202-11.593,11.015-11.593c4.386,0,7.819,2.04,9.621,5.916l-2.652,1.802
			L195.257,37.363z"/>
		<path fill="#FFFFFF" d="M221.539,31.958v3.467h-11.627v5.78h10.403v3.434h-10.403v6.391h12.001v3.468h-16.081v-22.54H221.539z"/>
		<path fill="#FFFFFF" d="M236.125,54.497h-4.08V35.425h-7.513v-3.467h19.106v3.467h-7.514V54.497z"/>
		<path fill="#FFFFFF" d="M254.723,31.958h4.08v22.54h-4.08V31.958z"/>
		<path fill="#FFFFFF" d="M273.558,54.497h-4.08V35.425h-7.513v-3.467h19.106v3.467h-7.513V54.497z"/>
		<path fill="#FFFFFF" d="M302.117,54.837c-5.813,0-11.185-4.487-11.185-11.627c0-7.139,5.372-11.593,11.185-11.593h0.102
			c5.814,0,11.186,4.454,11.186,11.593c0,7.14-5.371,11.627-11.186,11.627H302.117z M302.117,50.894h0.102
			c4.284,0,6.936-2.924,6.936-7.684c0-4.725-2.651-7.649-6.936-7.649h-0.102c-4.284,0-6.935,2.89-6.935,7.649
			C295.182,47.902,297.833,50.894,302.117,50.894z"/>
		<path fill="#FFFFFF" d="M333.396,31.958h3.842v22.54h-2.924c-0.375,0-0.51-0.068-0.783-0.374l-8.736-10.913
			c-1.496-1.903-3.094-3.978-3.74-4.963h-0.033v16.25h-3.842v-22.54h2.924c0.373,0,0.51,0.034,0.781,0.374l8.738,10.913
			c1.461,1.802,3.094,3.978,3.738,4.963h0.035V31.958z"/>
	</g>
</g>
</svg>
